HIERARCHY
ROOT SpineBase
{
  OFFSET 0.000000 0.000000 0.000000
  CHANNELS 6 Xposition Yposition Zposition Zrotation Xrotation Yrotation
  JOINT SpineMid
  {
    OFFSET 0.000000 30.005057 0.000000
    CHANNELS 3 Zrotation Xrotation Yrotation
    JOINT SpineShoulder
    {
      OFFSET 0.084860 22.396264 -0.793554
      CHANNELS 3 Zrotation Xrotation Yrotation
      JOINT Neck
      {
        OFFSET 0.038831 7.441692 -0.591092
        CHANNELS 3 Zrotation Xrotation Yrotation
        JOINT Head
        {
          OFFSET -2.983742 13.585319 -1.217959
          CHANNELS 3 Zrotation Xrotation Yrotation
          End Site
          {
            OFFSET 0 0 0
          }
        }
      }
      JOINT ShoulderLeft
      {
        OFFSET -16.552085 -3.131973 1.818212
        CHANNELS 3 Zrotation Xrotation Yrotation
        JOINT ElbowLeft
        {
          OFFSET -4.611053 -24.763859 1.994630
          CHANNELS 3 Zrotation Xrotation Yrotation
          JOINT WristLeft
          {
            OFFSET -6.668386 -14.952493 -11.597438
            CHANNELS 3 Zrotation Xrotation Yrotation
            JOINT HandLeft
            {
              OFFSET 3.365777 -5.820056 0.993093
              CHANNELS 3 Zrotation Xrotation Yrotation
              JOINT HandTipLeft
              {
                OFFSET -1.422821 -5.601540 -3.193197
                CHANNELS 3 Zrotation Xrotation Yrotation
                End Site
                {
                  OFFSET 0 0 0
                }
              }
              JOINT ThumbLeft
              {
                OFFSET -2.457360 3.015263 -5.046068
                CHANNELS 3 Zrotation Xrotation Yrotation
                End Site
                {
                  OFFSET 0 0 0
                }
              }
            }
          }
        }
      }
      JOINT ShoulderRight
      {
        OFFSET 15.827284 -1.517123 -4.573868
        CHANNELS 3 Zrotation Xrotation Yrotation
        JOINT ElbowRight
        {
          OFFSET 5.271509 -24.215414 2.416952
          CHANNELS 3 Zrotation Xrotation Yrotation
          JOINT WristRight
          {
            OFFSET -0.192494 -18.525849 -4.949255
            CHANNELS 3 Zrotation Xrotation Yrotation
            JOINT HandRight
            {
              OFFSET -1.716125 -7.332096 -1.374450
              CHANNELS 3 Zrotation Xrotation Yrotation
              JOINT HandTipRight
              {
                OFFSET 0.653546 -6.699393 -1.396345
                CHANNELS 3 Zrotation Xrotation Yrotation
                End Site
                {
                  OFFSET 0 0 0
                }
              }
              JOINT ThumbRight
              {
                OFFSET 2.921274 0.552238 -2.693187
                CHANNELS 3 Zrotation Xrotation Yrotation
                End Site
                {
                  OFFSET 0 0 0
                }
              }
            }
          }
        }
      }
    }
  }
  JOINT HipLeft
  {
    OFFSET -7.326927 0.817240 -2.129061
    CHANNELS 3 Zrotation Xrotation Yrotation
    JOINT KneeLeft
    {
      OFFSET 1.317702 -28.343351 -1.230134
      CHANNELS 3 Zrotation Xrotation Yrotation
      JOINT AnkleLeft
      {
        OFFSET 3.616803 -31.813744 3.595636
        CHANNELS 3 Zrotation Xrotation Yrotation
        JOINT FootLeft
        {
          OFFSET -1.244365 -5.361816 -9.744755
          CHANNELS 3 Zrotation Xrotation Yrotation
          End Site
          {
            OFFSET 0 0 0
          }
        }
      }
    }
  }
  JOINT HipRight
  {
    OFFSET 7.333369 1.205810 -4.583498
    CHANNELS 3 Zrotation Xrotation Yrotation
    JOINT KneeRight
    {
      OFFSET 2.577423 -28.131905 4.378375
      CHANNELS 3 Zrotation Xrotation Yrotation
      JOINT AnkleRight
      {
        OFFSET -1.739229 -31.158560 4.065217
        CHANNELS 3 Zrotation Xrotation Yrotation
        JOINT FootRight
        {
          OFFSET 1.444380 -7.179728 -6.559907
          CHANNELS 3 Zrotation Xrotation Yrotation
          End Site
          {
            OFFSET 0 0 0
          }
        }
      }
    }
  }
}
MOTION
Frames: 11
Frame Time: 0.033333
6.618557 67.727896 350.862181 9.071945 -5.806317 11.063945 -0.428246 -0.288495 -10.225427 -0.385519 0.961614 0.305070 15.492000 -2.279241 -0.410564 0.000000 0.000000 0.000000 1.470691 -9.559469 3.654904 -24.657252 34.299989 6.266387 -15.747338 10.731239 13.265717 35.944189 -43.922597 -3.523015 0.000000 0.000000 0.000000 0.000000 0.000000 0.000000 24.528604 -9.098815 1.000087 -17.602080 13.329785 -3.922072 6.409019 -2.501996 1.254157 -16.989243 -7.726841 2.162509 0.000000 0.000000 0.000000 0.000000 0.000000 0.000000 -18.415733 25.767856 -5.696692 -1.260158 -2.622120 -1.843395 3.059752 -20.055282 21.002788 0.000000 0.000000 0.000000 -9.188045 16.750930 -9.436955 -2.893594 -10.319820 -1.783996 -4.177015 26.347387 14.225675 0.000000 0.000000 0.000000
6.651371 67.682929 350.389299 8.760951 -4.893720 12.204366 -0.640155 0.257478 -11.503830 -0.351946 1.086112 0.268840 16.259446 -4.352956 0.150229 0.000000 0.000000 0.000000 1.902689 -10.141916 3.559536 -25.508873 33.500850 7.026342 -14.931452 10.479856 12.695903 36.621108 -43.856937 -3.288790 0.000000 0.000000 0.000000 0.000000 0.000000 0.000000 24.997470 -10.365605 1.739456 -16.502998 12.256114 -4.238540 3.802805 0.555160 0.635147 -14.266405 -6.993187 2.121070 0.000000 0.000000 0.000000 0.000000 0.000000 0.000000 -17.803374 24.167032 -7.352944 -0.940730 -1.963486 -1.664564 2.608074 -19.330595 21.081074 0.000000 0.000000 0.000000 -8.880365 14.901889 -10.869216 -2.924490 -9.435265 -1.610592 -0.333174 21.446298 9.733380 0.000000 0.000000 0.000000
6.655089 67.640337 350.043448 8.302883 -4.129611 12.569741 -0.776431 0.752697 -11.997921 -0.306556 1.132327 0.238450 17.934309 -6.596771 0.748810 0.000000 0.000000 0.000000 2.690962 -10.404567 3.479274 -27.033805 32.643852 8.132443 -13.531739 9.770065 11.526793 36.775527 -44.026810 -2.802618 0.000000 0.000000 0.000000 0.000000 0.000000 0.000000 25.510012 -10.847912 2.319862 -16.157748 11.064101 -4.345388 1.619528 3.270645 0.079557 -13.109893 -12.902669 2.090797 0.000000 0.000000 0.000000 0.000000 0.000000 0.000000 -17.458925 23.599161 -7.968500 -0.669519 -3.126921 -1.894157 3.093548 -18.563469 20.659928 0.000000 0.000000 0.000000 -8.594080 13.366378 -11.464349 -2.979435 -8.775555 -1.496882 2.630266 14.231028 5.746237 0.000000 0.000000 0.000000
6.624952 67.616274 349.749021 7.705045 -3.386352 12.604305 -0.854950 1.072108 -12.149955 -0.277468 1.061972 0.214816 18.483087 -8.385211 1.131066 0.000000 0.000000 0.000000 3.569827 -10.405527 3.398819 -28.835855 31.600563 9.509327 -11.439416 8.982773 10.085231 36.597892 -44.003808 -2.424957 0.000000 0.000000 0.000000 0.000000 0.000000 0.000000 25.572315 -11.169934 2.681630 -15.668181 10.929878 -4.417476 -1.471356 5.373529 -0.126567 -10.698900 -16.577236 2.007534 0.000000 0.000000 0.000000 0.000000 0.000000 0.000000 -16.893490 22.503130 -8.365291 -0.669132 -3.351055 -1.954948 2.991264 -17.616900 20.640096 0.000000 0.000000 0.000000 -8.211803 12.017168 -11.704828 -3.032267 -8.396387 -1.422815 4.344637 5.836930 2.657546 0.000000 0.000000 0.000000
6.530101 67.656009 349.429462 7.040640 -2.656450 11.630007 -0.825092 1.104134 -11.271490 -0.216743 0.811925 0.207526 17.670650 -9.278640 1.150240 0.000000 0.000000 0.000000 4.164757 -10.030981 3.258831 -30.056550 29.948641 10.638755 -9.941532 9.363798 9.207737 36.232176 -43.628879 -2.475549 0.000000 0.000000 0.000000 0.000000 0.000000 0.000000 24.795502 -10.758791 2.678034 -14.761660 10.618378 -4.497865 -5.455093 8.647775 -0.446595 -7.475995 -20.768422 2.160147 0.000000 0.000000 0.000000 0.000000 0.000000 0.000000 -16.523840 21.082837 -7.744778 -0.713612 -3.696994 -2.033224 2.440506 -15.783894 20.837513 0.000000 0.000000 0.000000 -7.850982 10.769258 -10.896508 -3.155733 -8.253767 -1.406382 5.438629 -2.378189 0.032955 0.000000 0.000000 0.000000
6.391718 67.777209 349.120633 6.333161 -1.980459 10.878757 -0.768202 1.052601 -10.600003 -0.214141 0.644982 0.190828 15.829319 -9.416550 0.964716 0.000000 0.000000 0.000000 4.754824 -9.632947 3.118919 -30.687388 27.691155 11.463298 -8.802273 10.620735 8.648797 36.032156 -43.087867 -2.704666 0.000000 0.000000 0.000000 0.000000 0.000000 0.000000 23.684959 -10.202280 2.582719 -14.544048 11.344600 -4.247078 -5.971419 7.964345 -0.547890 -6.694477 -22.370091 1.976703 0.000000 0.000000 0.000000 0.000000 0.000000 0.000000 -15.843629 19.622268 -7.385210 -0.878864 -3.733831 -2.049346 2.101957 -15.114165 21.063239 0.000000 0.000000 0.000000 -7.347515 9.481637 -10.303825 -3.278132 -7.954415 -1.367038 5.036149 -8.034070 -0.846832 0.000000 0.000000 0.000000
6.184512 67.974800 348.896823 5.608238 -1.473105 9.917209 -0.628267 0.880768 -9.693329 -0.207060 0.430803 0.179076 12.907345 -8.616621 0.538940 0.000000 0.000000 0.000000 5.106448 -9.010651 2.935254 -30.625896 24.965920 11.970591 -7.947712 12.498402 8.253444 36.320646 -43.302958 -2.638698 0.000000 0.000000 0.000000 0.000000 0.000000 0.000000 21.930231 -8.961291 2.252696 -14.324699 11.906036 -3.857118 -6.147406 7.819856 -0.982388 -5.953515 -21.400857 2.175450 0.000000 0.000000 0.000000 0.000000 0.000000 0.000000 -15.030837 18.445673 -6.751326 -1.089726 -4.111247 -2.118940 1.650215 -14.288576 21.357838 0.000000 0.000000 0.000000 -6.723952 8.539597 -9.444058 -3.399819 -7.823279 -1.359861 3.513769 -8.973140 0.302842 0.000000 0.000000 0.000000
5.917929 68.233562 348.675523 4.825929 -0.971864 8.488479 -0.503759 0.772686 -8.317566 -0.240701 0.387520 0.151877 10.352131 -8.576117 0.198217 0.000000 0.000000 0.000000 5.311203 -8.719932 2.780417 -29.768217 21.917036 12.178387 -8.149299 14.970681 7.980715 36.789617 -44.122114 -2.102821 0.000000 0.000000 0.000000 0.000000 0.000000 0.000000 19.989652 -7.928884 2.010998 -13.920026 12.476284 -3.376112 -6.150442 7.316203 -1.367273 -5.422241 -20.130951 2.339607 0.000000 0.000000 0.000000 0.000000 0.000000 0.000000 -14.268067 17.144153 -5.626350 -1.323091 -4.435990 -2.179342 1.292479 -13.752014 21.650273 0.000000 0.000000 0.000000 -6.004031 7.696081 -8.084237 -3.519602 -7.811388 -1.373093 0.569172 -3.847822 4.158521 0.000000 0.000000 0.000000
5.591882 68.509491 348.486619 4.046212 -0.532614 7.214439 -0.296864 0.642468 -7.083534 -0.258091 0.340974 0.128920 7.390883 -8.796732 -0.273432 0.000000 0.000000 0.000000 5.271021 -8.532765 2.636309 -28.648423 19.303665 12.271685 -8.327146 17.023827 7.706056 37.414498 -44.502739 -1.656815 0.000000 0.000000 0.000000 0.000000 0.000000 0.000000 17.892658 -7.000908 1.752582 -13.271107 13.138915 -2.893964 -5.945730 6.565127 -1.728497 -5.720843 -19.437233 2.392400 0.000000 0.000000 0.000000 0.000000 0.000000 0.000000 -13.371938 16.071236 -4.614636 -1.625997 -4.774451 -2.246942 0.958632 -13.298757 21.948448 0.000000 0.000000 0.000000 -5.134985 6.975417 -6.845484 -3.643382 -7.790884 -1.386769 1.512637 -10.863531 1.401115 0.000000 0.000000 0.000000
5.273017 68.753270 348.342268 3.373166 -0.193870 6.417253 -0.038758 0.485539 -6.310095 -0.248946 0.305550 0.113944 4.638046 -8.945314 -0.745465 0.000000 0.000000 0.000000 5.009763 -8.204008 2.452363 -27.539462 16.565134 12.459425 -8.124058 18.457790 6.692896 37.848157 -43.325864 -1.401996 0.000000 0.000000 0.000000 0.000000 0.000000 0.000000 15.907811 -6.325211 1.501741 -12.548110 13.680043 -2.422111 -5.475824 4.894256 -1.803858 -6.069272 -15.723413 2.612148 0.000000 0.000000 0.000000 0.000000 0.000000 0.000000 -12.510492 15.395398 -3.999477 -1.788599 -5.166186 -2.296254 0.650713 -12.947622 22.111169 0.000000 0.000000 0.000000 -4.320994 6.369697 -6.067306 -3.666539 -7.651317 -1.364969 2.511795 -11.637418 -0.008997 0.000000 0.000000 0.000000
4.947951 68.921016 348.260779 2.784078 0.032264 6.190857 0.151914 0.392606 -6.101137 -0.320600 0.309968 0.091459 2.978084 -9.342331 -1.099906 0.000000 0.000000 0.000000 4.822788 -7.984864 2.308638 -26.613882 14.132560 12.802277 -6.891956 18.771748 4.775990 37.165402 -40.984797 -1.467896 0.000000 0.000000 0.000000 0.000000 0.000000 0.000000 14.490112 -5.939679 1.326008 -11.941479 14.037398 -1.996096 -4.683768 3.046696 -1.766036 -6.718591 -11.628693 2.879247 0.000000 0.000000 0.000000 0.000000 0.000000 0.000000 -11.598151 15.007556 -3.910993 -1.883184 -5.418600 -2.298557 0.184726 -12.490855 22.284324 0.000000 0.000000 0.000000 -3.519684 5.926408 -5.844031 -3.705388 -7.533405 -1.344643 3.382199 -7.128080 0.002790 0.000000 0.000000 0.000000
